<svg width="20" height="16" viewBox="0 0 20 16" fill="none" xmlns="http://www.w3.org/2000/svg">
<path d="M2.30518 7.30957C1.84033 7.30957 1.48893 7.19336 1.25098 6.96094C1.01302 6.72298 0.894043 6.36051 0.894043 5.87354V1.93896C0.894043 1.45199 1.01302 1.09229 1.25098 0.859863C1.48893 0.627441 1.84033 0.51123 2.30518 0.51123H7.875C8.33431 0.51123 8.68294 0.627441 8.9209 0.859863C9.15885 1.09229 9.27783 1.45199 9.27783 1.93896V5.87354C9.27783 6.36051 9.15885 6.72298 8.9209 6.96094C8.68294 7.19336 8.33431 7.30957 7.875 7.30957H2.30518ZM2.32178 6.39648H7.8501C8.02718 6.39648 8.15723 6.35498 8.24023 6.27197C8.32878 6.18343 8.37305 6.04785 8.37305 5.86523V1.94727C8.37305 1.76465 8.32878 1.63184 8.24023 1.54883C8.15723 1.46582 8.02718 1.42432 7.8501 1.42432H2.32178C2.14469 1.42432 2.01465 1.46582 1.93164 1.54883C1.84863 1.63184 1.80713 1.76465 1.80713 1.94727V5.86523C1.80713 6.04785 1.84863 6.18343 1.93164 6.27197C2.01465 6.35498 2.14469 6.39648 2.32178 6.39648ZM12.125 7.30957C11.6602 7.30957 11.3088 7.19336 11.0708 6.96094C10.8328 6.72298 10.7139 6.36051 10.7139 5.87354V1.93896C10.7139 1.45199 10.8328 1.09229 11.0708 0.859863C11.3088 0.627441 11.6602 0.51123 12.125 0.51123H17.6865C18.1514 0.51123 18.5028 0.627441 18.7407 0.859863C18.9787 1.09229 19.0977 1.45199 19.0977 1.93896V5.87354C19.0977 6.36051 18.9787 6.72298 18.7407 6.96094C18.5028 7.19336 18.1514 7.30957 17.6865 7.30957H12.125ZM12.1416 6.39648H17.6699C17.847 6.39648 17.9771 6.35498 18.0601 6.27197C18.1431 6.18343 18.1846 6.04785 18.1846 5.86523V1.94727C18.1846 1.76465 18.1431 1.63184 18.0601 1.54883C17.9771 1.46582 17.847 1.42432 17.6699 1.42432H12.1416C11.9645 1.42432 11.8345 1.46582 11.7515 1.54883C11.6685 1.63184 11.627 1.76465 11.627 1.94727V5.86523C11.627 6.04785 11.6685 6.18343 11.7515 6.27197C11.8345 6.35498 11.9645 6.39648 12.1416 6.39648ZM2.30518 15.5356C1.84033 15.5356 1.48893 15.4194 1.25098 15.187C1.01302 14.9546 0.894043 14.5921 0.894043 14.0996V10.165C0.894043 9.67806 1.01302 9.31836 1.25098 9.08594C1.48893 8.84798 1.84033 8.729 2.30518 8.729H7.875C8.33431 8.729 8.68294 8.84798 8.9209 9.08594C9.15885 9.31836 9.27783 9.67806 9.27783 10.165V14.0996C9.27783 14.5921 9.15885 14.9546 8.9209 15.187C8.68294 15.4194 8.33431 15.5356 7.875 15.5356H2.30518ZM2.32178 14.6226H7.8501C8.02718 14.6226 8.15723 14.5783 8.24023 14.4897C8.32878 14.4067 8.37305 14.2739 8.37305 14.0913V10.1816C8.37305 9.99349 8.32878 9.85791 8.24023 9.7749C8.15723 9.69189 8.02718 9.65039 7.8501 9.65039H2.32178C2.14469 9.65039 2.01465 9.69189 1.93164 9.7749C1.84863 9.85791 1.80713 9.99349 1.80713 10.1816V14.0913C1.80713 14.2739 1.84863 14.4067 1.93164 14.4897C2.01465 14.5783 2.14469 14.6226 2.32178 14.6226ZM12.125 15.5356C11.6602 15.5356 11.3088 15.4194 11.0708 15.187C10.8328 14.9546 10.7139 14.5921 10.7139 14.0996V10.165C10.7139 9.67806 10.8328 9.31836 11.0708 9.08594C11.3088 8.84798 11.6602 8.729 12.125 8.729H17.6865C18.1514 8.729 18.5028 8.84798 18.7407 9.08594C18.9787 9.31836 19.0977 9.67806 19.0977 10.165V14.0996C19.0977 14.5921 18.9787 14.9546 18.7407 15.187C18.5028 15.4194 18.1514 15.5356 17.6865 15.5356H12.125ZM12.1416 14.6226H17.6699C17.847 14.6226 17.9771 14.5783 18.0601 14.4897C18.1431 14.4067 18.1846 14.2739 18.1846 14.0913V10.1816C18.1846 9.99349 18.1431 9.85791 18.0601 9.7749C17.9771 9.69189 17.847 9.65039 17.6699 9.65039H12.1416C11.9645 9.65039 11.8345 9.69189 11.7515 9.7749C11.6685 9.85791 11.627 9.99349 11.627 10.1816V14.0913C11.627 14.2739 11.6685 14.4067 11.7515 14.4897C11.8345 14.5783 11.9645 14.6226 12.1416 14.6226Z" fill="black"/>
</svg>
