<svg width="8" height="12" viewBox="0 0 8 12" fill="none" xmlns="http://www.w3.org/2000/svg">
<path fill-rule="evenodd" clip-rule="evenodd" d="M2.06992 0.648447L0.0910737 2.62729C-0.0303579 2.74872 -0.0303579 2.9456 0.0910737 3.06703C0.212505 3.18846 0.409385 3.18846 0.530816 3.06703L1.97884 1.619V11.1295C1.97884 11.3012 2.11806 11.4404 2.28979 11.4404C2.46152 11.4404 2.60073 11.3012 2.60073 11.1295V1.619L4.04876 3.06703C4.17019 3.18846 4.36707 3.18846 4.4885 3.06703C4.60993 2.9456 4.60993 2.74872 4.4885 2.62729L2.50966 0.648447C2.38823 0.527015 2.19135 0.527015 2.06992 0.648447ZM5.92986 11.3516L7.9087 9.37278C8.03013 9.25135 8.03013 9.05447 7.9087 8.93304C7.78727 8.81161 7.59039 8.81161 7.46896 8.93304L6.02093 10.3811V0.870572C6.02093 0.698842 5.88172 0.559627 5.70999 0.559627C5.53826 0.559627 5.39904 0.698842 5.39904 0.870572V10.3811L3.95102 8.93304C3.82959 8.81161 3.63271 8.81161 3.51127 8.93304C3.38984 9.05447 3.38984 9.25135 3.51127 9.37278L5.49012 11.3516C5.61155 11.4731 5.80843 11.4731 5.92986 11.3516Z" fill="#1F1F1F"/>
</svg>
