<svg width="32" height="26" viewBox="0 0 32 26" fill="none" xmlns="http://www.w3.org/2000/svg">
<path d="M15.8378 0C11.9436 0 8.41299 1.65605 5.98568 4.31847C5.45348 4.89171 5.63521 5.64331 6.12846 5.97452C6.54383 6.28025 7.10198 6.30573 7.64716 5.73248C9.67211 3.52866 12.5927 2.1656 15.8378 2.1656C21.1986 2.1656 25.6508 5.91082 26.6243 10.879H24.7941C23.8726 10.879 23.6389 11.4904 24.1321 12.1911L27.0398 16.2548C27.4551 16.8407 28.0781 16.8535 28.5065 16.2548L31.4141 12.2038C31.9203 11.4904 31.6737 10.879 30.7521 10.879H28.8829C27.8705 4.71337 22.4058 0 15.8378 0ZM15.8378 25.9872C19.7318 25.9872 23.2625 24.3312 25.6897 21.6688C26.222 21.0828 26.0402 20.344 25.547 19.9999C25.1317 19.707 24.5735 19.6815 24.0283 20.242C22.0034 22.4458 19.0828 23.8216 15.8378 23.8216C10.4769 23.8216 6.02461 20.0764 5.05109 15.1082H6.88131C7.80292 15.1082 8.03656 14.4841 7.54331 13.7962L4.63572 9.71977C4.22035 9.1465 3.59729 9.13372 3.16895 9.71977L0.261357 13.7834C-0.244875 14.4841 -0.011229 15.1082 0.923357 15.1082H2.79252C3.80498 21.2739 9.26972 25.9872 15.8378 25.9872Z" fill="#222020"/>
</svg>
