<svg width="13" height="19" viewBox="0 0 13 19" fill="none" xmlns="http://www.w3.org/2000/svg">
<path d="M12.8194 7.89818V14.9331C12.8194 16.4029 12.0611 17.1449 10.5517 17.1449H2.26778C0.758335 17.1449 0 16.41 0 14.9331V7.89818C0 6.42129 0.758335 5.6864 2.26778 5.6864H4.47778V6.83511H2.28222C1.56 6.83511 1.16278 7.21327 1.16278 7.95527V14.876C1.16278 15.618 1.56 15.9962 2.28222 15.9962H10.53C11.245 15.9962 11.6567 15.618 11.6567 14.876V7.95527C11.6567 7.21327 11.245 6.83511 10.53 6.83511H8.33444V5.6864H10.5517C12.0611 5.6864 12.8194 6.4284 12.8194 7.89818Z" fill="#7C6344"/>
<path d="M6.40612 11.5584C6.71664 11.5584 6.98386 11.3087 6.98386 11.009V3.75293L6.94052 2.68984L7.34501 3.1108L8.4572 4.28804C8.55833 4.4022 8.70998 4.45927 8.8472 4.45927C9.15056 4.45927 9.37445 4.24523 9.37445 3.95984C9.37445 3.80288 9.31667 3.68872 9.20835 3.5817L6.82501 1.31282C6.68055 1.17013 6.55778 1.12732 6.40612 1.12732C6.26166 1.12732 6.1389 1.17013 5.98724 1.31282L3.61111 3.5817C3.50277 3.68872 3.43777 3.80288 3.43777 3.95984C3.43777 4.24523 3.65444 4.45927 3.95777 4.45927C4.09499 4.45927 4.25388 4.4022 4.355 4.28804L5.47443 3.1108L5.87887 2.68984L5.83553 3.75293V11.009C5.83553 11.3087 6.09556 11.5584 6.40612 11.5584Z" fill="#7C6344"/>
</svg>
